<svg width="40" height="40" viewBox="0 0 40 40" fill="none" xmlns="http://www.w3.org/2000/svg">
<path d="M31.6667 20H36.6667M31.6667 20C31.6686 21.5324 31.3678 23.0501 30.7815 24.4659C30.1951 25.8817 29.3348 27.1677 28.25 28.25M31.6667 20C31.6686 18.4676 31.3678 16.9499 30.7815 15.5341C30.1951 14.1183 29.3348 12.8323 28.25 11.75M36.6667 20V16.6667M36.6667 20V23.3333M28.25 28.25C27.1677 29.3348 25.8817 30.1951 24.4659 30.7814C23.0501 31.3677 21.5324 31.6686 20 31.6667M28.25 28.25L32.5 32.5M28.25 11.75C26.1384 9.64 23.2217 8.33333 20 8.33333M28.25 11.75L32.5 7.49999M20 31.6667V36.6667M20 31.6667C18.4676 31.6686 16.95 31.3677 15.5342 30.7814C14.1184 30.1951 12.8324 29.3348 11.75 28.25M20 36.6667H23.3334M20 36.6667H16.6667M11.75 28.25C9.64004 26.1383 8.33337 23.2217 8.33337 20M11.75 28.25L7.50004 32.5M8.33337 20C8.33337 16.9058 9.56254 13.9383 11.7505 11.7504C13.9384 9.56249 16.9058 8.33333 20 8.33333M8.33337 20H3.33337M20 8.33333V3.33333M3.33337 20V16.6667M3.33337 20V23.3333M20 3.33333H23.3334M20 3.33333H16.6667M32.5 7.49999L30 4.99999M32.5 7.49999L35 9.99999M7.50004 7.49999L10 4.99999M7.50004 7.49999L5.00004 9.99999M7.50004 7.49999L11.6667 11.6667M7.50004 32.5L10 35M7.50004 32.5L5.00004 30M32.5 32.5L30 35M32.5 32.5L35 30" stroke="#393939" stroke-width="3.33333" stroke-linecap="round" stroke-linejoin="round"/>
<path d="M17.5 20C18.8807 20 20 18.8807 20 17.5C20 16.1193 18.8807 15 17.5 15C16.1193 15 15 16.1193 15 17.5C15 18.8807 16.1193 20 17.5 20Z" stroke="#393939" stroke-width="3.33333" stroke-linecap="round" stroke-linejoin="round"/>
</svg>
