<svg width="40" height="40" viewBox="0 0 40 40" fill="none" xmlns="http://www.w3.org/2000/svg">
<path d="M24.2332 3.33333V7.47666C24.2332 10.39 24.2332 11.8467 24.5915 13.245C24.9465 14.645 25.6465 15.9283 27.0449 18.495L28.9382 21.975C32.5015 28.5183 34.2832 31.7917 32.8215 34.2167L32.7982 34.2533C31.3165 36.6667 27.5432 36.6667 19.9999 36.6667C12.4565 36.6667 8.6832 36.6667 7.19987 34.2533L7.1782 34.2167C5.71654 31.7917 7.4982 28.5183 11.0615 21.975L12.9549 18.495C14.3549 15.9283 15.0515 14.645 15.4082 13.245C15.7649 11.845 15.7649 10.39 15.7649 7.47833V3.33333M14.9999 26.67L15.0149 26.6667M24.9999 30.0033L25.0149 30M13.3332 3.33333H26.6665" stroke="#3177E0" stroke-width="2.5" stroke-linecap="round" stroke-linejoin="round"/>
<path d="M12.5 19.26C14.1667 17.3383 16.8333 18.7233 20 20.53C24.1667 22.9067 26.6667 21.0833 27.5 19.3583" stroke="#3177E0" stroke-width="2.5" stroke-linecap="round" stroke-linejoin="round"/>
</svg>
