<svg width="40" height="40" viewBox="0 0 40 40" fill="none" xmlns="http://www.w3.org/2000/svg">
<path d="M11.7001 2.5C9.50011 2.5 7.44761 4.2025 7.50761 6.6125C7.57011 9.155 8.10761 11.09 8.92261 12.63C9.73761 14.165 10.7926 15.23 11.7726 16.08C12.1126 16.375 12.4626 16.655 12.7801 16.9125L13.1476 17.2125C13.5701 17.5575 13.9151 17.8575 14.1976 18.16C14.7326 18.725 15.0001 19.25 15.0001 20C15.0001 20.75 14.7326 21.275 14.2026 21.84C13.9201 22.14 13.5751 22.4425 13.1526 22.79L12.7826 23.0875C12.4431 23.3587 12.1081 23.6354 11.7776 23.9175C10.7951 24.7675 9.74011 25.835 8.92761 27.3675C8.10761 28.9075 7.57011 30.8425 7.50261 33.3825C7.44011 35.795 9.49761 37.5 11.7001 37.5H28.2951C30.4976 37.5 32.5551 35.795 32.4926 33.3825C32.4251 30.8425 31.8876 28.9075 31.0726 27.37C30.2576 25.8325 29.2026 24.77 28.2226 23.92C27.8826 23.625 27.5351 23.345 27.2176 23.0875L26.8501 22.7875C26.4782 22.4968 26.1273 22.1802 25.8001 21.84C25.2676 21.275 25.0001 20.75 25.0001 20C25.0001 19.25 25.2701 18.725 25.8001 18.16C26.0851 17.8575 26.4301 17.5575 26.8501 17.21L27.2201 16.9125C27.5376 16.6575 27.8876 16.375 28.2276 16.08C29.2101 15.23 30.2651 14.165 31.0776 12.63C31.8951 11.09 32.4326 9.155 32.4951 6.6125C32.5501 4.2025 30.4951 2.5 28.2976 2.5H11.7001ZM10.0051 6.55C9.98511 5.75 10.6901 5 11.7026 5H28.2976C29.3076 5 30.0126 5.75 29.9926 6.55C29.9376 8.76 29.4776 10.305 28.8676 11.4575C28.2576 12.61 27.4501 13.445 26.5901 14.19C26.2826 14.455 25.9876 14.695 25.6826 14.94L25.2651 15.2775C24.8083 15.6386 24.3772 16.0313 23.9751 16.4525C23.1376 17.3425 22.5001 18.45 22.5001 20C22.5001 21.545 23.1351 22.655 23.9726 23.55C24.3726 23.975 24.8251 24.3625 25.2626 24.7225L25.6801 25.06C25.9826 25.305 26.2801 25.545 26.5851 25.81C27.4451 26.555 28.2476 27.385 28.8601 28.5425C29.4726 29.6925 29.9351 31.2375 29.9901 33.4475C30.0101 34.2475 29.3051 35 28.2926 35H11.7001C10.6876 35 9.98261 34.2475 10.0026 33.4475C10.0601 31.2375 10.5226 29.6925 11.1326 28.5425C11.7476 27.3875 12.5501 26.555 13.4126 25.81C13.7201 25.545 14.0151 25.3075 14.3176 25.06L14.7376 24.7225C15.1751 24.3625 15.6276 23.9775 16.0276 23.5475C16.8651 22.655 17.5026 21.5475 17.5026 19.9975C17.5026 18.4525 16.8626 17.345 16.0276 16.45C15.6246 16.0295 15.1927 15.6377 14.7351 15.2775L14.3176 14.94C14.0151 14.695 13.7176 14.455 13.4101 14.19C12.5501 13.445 11.7451 12.6125 11.1351 11.4575C10.5226 10.3075 10.0626 8.76 10.0101 6.55M15.0501 27.7L15.2876 27.5H24.7176L24.9526 27.7C25.6926 28.34 26.2451 28.9375 26.6576 29.715C26.9826 30.33 27.2976 31.2025 27.4326 32.5H12.5626C12.6976 31.2025 13.0126 30.3325 13.3376 29.715C13.7501 28.94 14.3026 28.34 15.0451 27.7025" fill="#D10019"/>
</svg>
