<svg width="19" height="19" viewBox="0 0 19 19" fill="none" xmlns="http://www.w3.org/2000/svg">
<path fill-rule="evenodd" clip-rule="evenodd" d="M5.54167 7.52084C5.54184 6.18086 5.99526 4.88034 6.82821 3.83071C7.66117 2.78109 8.82468 2.04407 10.1296 1.7395C11.4345 1.43492 12.804 1.58069 14.0156 2.15311C15.2271 2.72553 16.2095 3.69094 16.8028 4.89238C17.3962 6.09382 17.5657 7.46064 17.2838 8.77063C17.0019 10.0806 16.2852 11.2567 15.2502 12.1078C14.2152 12.9588 12.9227 13.4348 11.583 13.4582C10.2432 13.4816 8.93488 13.0511 7.87076 12.2368L6.45526 13.6515L7.58417 14.7804C7.65978 14.8534 7.72009 14.9408 7.76158 15.0374C7.80308 15.134 7.82491 15.2379 7.82583 15.343C7.82674 15.4481 7.80671 15.5523 7.76691 15.6496C7.7271 15.7469 7.66832 15.8353 7.59398 15.9096C7.51965 15.984 7.43126 16.0428 7.33397 16.0826C7.23668 16.1224 7.13243 16.1424 7.02731 16.1415C6.92219 16.1406 6.81831 16.1187 6.72173 16.0773C6.62514 16.0358 6.53778 15.9754 6.46476 15.8998L5.33584 14.7717L3.6575 16.45C3.50896 16.5985 3.30752 16.6818 3.09752 16.6818C2.88751 16.6817 2.68614 16.5982 2.53769 16.4496C2.38925 16.3011 2.3059 16.0997 2.30597 15.8897C2.30604 15.6797 2.38954 15.4783 2.53809 15.3298L4.21642 13.6515L3.10571 12.5408C3.0301 12.4678 2.96979 12.3804 2.9283 12.2838C2.88681 12.1872 2.86497 12.0834 2.86406 11.9782C2.86314 11.8731 2.88317 11.7689 2.92298 11.6716C2.96278 11.5743 3.02157 11.4859 3.0959 11.4116C3.17023 11.3372 3.25862 11.2785 3.35592 11.2386C3.45321 11.1988 3.55746 11.1788 3.66257 11.1797C3.76769 11.1806 3.87157 11.2025 3.96816 11.244C4.06474 11.2855 4.1521 11.3458 4.22513 11.4214L5.33584 12.5321L6.75292 11.115C5.96552 10.0824 5.53987 8.81938 5.54167 7.52084ZM11.4792 3.16667C10.3244 3.16667 9.21688 3.62541 8.40031 4.44198C7.58375 5.25854 7.125 6.36604 7.125 7.52084C7.125 8.67563 7.58375 9.78313 8.40031 10.5997C9.21688 11.4163 10.3244 11.875 11.4792 11.875C12.634 11.875 13.7415 11.4163 14.558 10.5997C15.3746 9.78313 15.8333 8.67563 15.8333 7.52084C15.8333 6.36604 15.3746 5.25854 14.558 4.44198C13.7415 3.62541 12.634 3.16667 11.4792 3.16667Z" fill="#E400BF"/>
</svg>
