<svg width="19" height="19" viewBox="0 0 19 19" fill="none" xmlns="http://www.w3.org/2000/svg">
<path d="M5.43402 13.566C5.801 13.9362 6.23748 14.2303 6.71842 14.4313C7.19936 14.6324 7.71527 14.7365 8.23655 14.7376C8.75782 14.7388 9.27418 14.637 9.756 14.438C10.2378 14.239 10.6756 13.9469 11.0442 13.5783C11.4128 13.2097 11.7049 12.7719 11.9039 12.2901C12.1028 11.8083 12.2047 11.2919 12.2035 10.7707C12.2024 10.2494 12.0983 9.73346 11.8972 9.25253C11.6962 8.77159 11.4021 8.3351 11.0319 7.96812C10.2885 7.23117 9.28335 6.8187 8.23655 6.821C7.18974 6.82329 6.18646 7.24015 5.44625 7.98036C4.70604 8.72056 4.28918 9.72384 4.28689 10.7707C4.2846 11.8175 4.69706 12.8226 5.43402 13.566ZM11.552 6.32858L13.5731 4.30746H12.3722C12.1622 4.30746 11.9609 4.22405 11.8124 4.07558C11.6639 3.92712 11.5805 3.72575 11.5805 3.51579C11.5805 3.30583 11.6639 3.10446 11.8124 2.956C11.9609 2.80753 12.1622 2.72412 12.3722 2.72412H15.5389C15.6429 2.72381 15.746 2.74407 15.8422 2.78375C15.9384 2.82342 16.0258 2.88172 16.0993 2.9553C16.1729 3.02887 16.2312 3.11627 16.2709 3.21246C16.3106 3.30865 16.3308 3.41174 16.3305 3.51579V6.68246C16.3305 6.89242 16.2471 7.09378 16.0986 7.24225C15.9502 7.39072 15.7488 7.47412 15.5389 7.47412C15.3289 7.47412 15.1275 7.39072 14.9791 7.24225C14.8306 7.09378 14.7472 6.89242 14.7472 6.68246V5.37225L12.6714 7.448C13.5047 8.5706 13.883 9.96662 13.7306 11.3564C13.5782 12.7461 12.9062 14.0269 11.8494 14.9422C10.7925 15.8575 9.42888 16.3396 8.03161 16.292C6.63434 16.2443 5.30668 15.6705 4.3146 14.6854C3.3233 13.6948 2.74411 12.3655 2.69366 10.965C2.6432 9.56448 3.12523 8.19687 4.04267 7.13752C4.96012 6.07817 6.24485 5.40576 7.63819 5.25566C9.03153 5.10556 10.43 5.48893 11.552 6.32858Z" fill="#0057DA"/>
</svg>
